<?xml version="1.0" encoding="UTF-8"?>
<svg width="1920px" height="1080px" viewBox="0 0 1600 1200" version="1.1" xmlns="http://www.w3.org/2000/svg" xmlns:xlink="http://www.w3.org/1999/xlink">
    <!-- Generator: Sketch 51.3 (57544) - http://www.bohemiancoding.com/sketch -->
    <title>Custom Preset</title>
    <desc>Created with Sketch.</desc>
    <defs></defs>
    <g id="Custom-Preset" stroke="none" stroke-width="1" fill="none" fill-rule="evenodd">
        <g id="Alienation" transform="translate(300.000000, 523.000000)" fill="#fff" fill-rule="nonzero">
             <path id="Path_1" data-name="Path 1" d="M10.171-148.052H145.759l6.078,39.274a68.836,68.836,0,0,0-15.9-22.91Q121.446-145.48,98.069-145.48H89.654V-5.217q0,13.792,10.052,18.234,7.247,2.571,11.922,2.571H46.172q4.442,0,11.689-2.571Q67.913,8.575,67.913-5.217V-145.48H58.094q-22.91,0-37.871,14.26A71.791,71.791,0,0,0,5.262-112.051l-1.87,3.74Zm184.679-3.74V-.308q0,10.753,8.416,14.026a35.241,35.241,0,0,0,9.818,1.87h-54.7a31.2,31.2,0,0,0,9.585-1.87q8.65-3.039,8.65-14.026V-122.8q0-5.143-1.636-7.831t-3.039-3.039a16,16,0,0,0-3.74-.351l-1.4.234Zm71.534,105.2V-.308q0,10.753,7.714,14.026a28.281,28.281,0,0,0,8.883,1.87h-51.2a27.943,27.943,0,0,0,8.65-1.87q7.714-3.039,7.714-14.026V-43.79q0-9.117-.234-11.455a68.354,68.354,0,0,0-.7-9.117q-.7-7.247-3.039-10.52t-7.948-5.844q-7.247-2.805-18.935,1.169a56.934,56.934,0,0,0-20.1,11.922A92.087,92.087,0,0,1,218.7-86.1a41.894,41.894,0,0,1,26.416-6.779q13.091,0,18.7,13.559,1.4,2.571,1.87,8.65.468,7.948.468,9.117.234,1.87.234,10.286ZM354.516,4.6Q336.048,3.9,324.36-9.893q-11.221-13.792-11.221-35.533h81.119q.468-21.507-10.987-34.131a40.434,40.434,0,0,0-29.689-14.494q-18.234-1.169-32.027,7.714-26.884,15.663-26.182,49.092Q295.84-12.932,310.8,2.5A51.763,51.763,0,0,0,348.2,18.16,47.988,47.988,0,0,0,379.062,8.107q12.857-10.52,16.13-25.715Q383.738,5.77,354.516,4.6Zm-24.78-90.469a35.715,35.715,0,0,1,20.572-6.779q11.455-.234,19.169,6.312a21.98,21.98,0,0,1,7.481,10.4A23.641,23.641,0,0,1,378.244-64.6a17.932,17.932,0,0,1-3.39,8.416q-4.909,6.546-19.871,7.948-6.546.935-41.845.935Q314.074-74.648,329.737-85.869ZM624.288-71.842q1.4,36.7-18.819,61.949T550.417,15.588H472.1a40.266,40.266,0,0,0,11.689-2.338,14.363,14.363,0,0,0,7.247-6.078,19.285,19.285,0,0,0,2.805-10.52V-128.181q0-14.026-10.052-17.3-7.247-2.571-11.689-2.571H538.26q21.039-.234,35.65,3.156a72.528,72.528,0,0,1,26.066,11.572Q623.119-116.96,624.288-71.842Zm-73.4,84.625q25.013-1.636,37.754-23.845t12.039-61.014q-.234-42.78-20.1-59.144-16.831-14.26-42.78-14.494-14.026,0-21.039.468V-6.386q0,11.221,5.143,15.312t17.3,4.091Q549.715,13.017,550.884,12.783ZM703.537,4.6Q685.069,3.9,673.38-9.893q-11.221-13.792-11.221-35.533h81.119q.467-21.507-10.987-34.131A40.434,40.434,0,0,0,702.6-94.051q-18.234-1.169-32.027,7.714-26.884,15.663-26.182,49.092Q644.86-12.932,659.821,2.5a51.763,51.763,0,0,0,37.4,15.663A47.988,47.988,0,0,0,728.083,8.107q12.857-10.52,16.13-25.715Q732.758,5.77,703.537,4.6Zm-24.78-90.469a35.715,35.715,0,0,1,20.572-6.779q11.455-.234,19.169,6.312a21.979,21.979,0,0,1,7.481,10.4A23.641,23.641,0,0,1,727.264-64.6a17.932,17.932,0,0,1-3.39,8.416Q718.966-49.634,704-48.231q-6.546.935-41.845.935Q663.094-74.648,678.757-85.869Zm151.484-3.74h37.17a28.4,28.4,0,0,0-14.26,8.883q-3.507,3.273-7.247,11.689l-36.7,89.3-42.78-96.548a25.9,25.9,0,0,0-7.247-8.766,20.342,20.342,0,0,0-7.948-4.091l-3.039-.468h46.988l-1.4.234a20.7,20.7,0,0,0-3.039.935,10.288,10.288,0,0,0-3.39,2.1,7.432,7.432,0,0,0-2.1,3.857q-.584,2.455.818,6.429L810.37-19.478q3.506,7.247,7.013,7.247a4.15,4.15,0,0,0,1.87-.468,4.112,4.112,0,0,0,1.636-1.636q.7-1.169,1.286-2.1a26.374,26.374,0,0,0,1.4-2.688q.818-1.753,1.286-2.688l18.7-45.819.935-2.571q2.805-7.948-1.052-13.091T830.241-89.609Zm210.862,37.4h53.3a11.956,11.956,0,0,0-1.753.234,18.561,18.561,0,0,0-3.857,1.4,18.551,18.551,0,0,0-4.675,3.039,15.971,15.971,0,0,0-3.74,5.611,21.411,21.411,0,0,0-1.636,8.65v51.2a31.4,31.4,0,0,0-7.714-13.793q-6.078-6.779-10.286-7.013l-.7.7q-.935.935-1.87,1.987A23.914,23.914,0,0,1,1056.18,1.8q-1.052.935-1.519,1.4a58.062,58.062,0,0,1-8.883,7.247q-13.091,8.182-30.624,8.182-36.936,0-57.508-23.845Q937.074-28.828,937.074-65.3A88.944,88.944,0,0,1,942.8-97.791a71.923,71.923,0,0,1,15.312-24.546A84.822,84.822,0,0,1,980.2-138.584a92.967,92.967,0,0,1,26.065-8.883,103.713,103.713,0,0,1,27.351-1.286,101.4,101.4,0,0,1,43.949,14.026l-.468,36.7a46.8,46.8,0,0,0-5.61-10.52,118.487,118.487,0,0,0-12.39-15.2A64.788,64.788,0,0,0,1040.635-138q-27.819-13.793-51.2-1.169-15.429,7.714-23.143,27T960.451-66q2.1,34.832,19.637,55.4,18,20.338,41.611,21.741,16.831.7,26.884-7.247,13.793-9.585,13.792-35.533V-32.8a17.087,17.087,0,0,0-5.026-12.39,19.5,19.5,0,0,0-10.87-6.078ZM1148.4,5.536q7.714,3.039,19.637-.7a53.307,53.307,0,0,0,20.338-12.156,79.726,79.726,0,0,1-21.741,18.468q-13.325,7.948-27.117,6.779-12.624.234-18.468-13.793a20.378,20.378,0,0,1-1.87-8.65l-.7-9.351V-73.479q0-11.221-7.948-14.026a22.446,22.446,0,0,0-8.65-2.1h34.832v65.923q0,12.156,1.4,16.6Q1141.39,4.367,1148.4,5.536Zm41.378-3.273V-74.414q0-10.52-7.714-13.325a25.918,25.918,0,0,0-8.416-1.87h34.365V-7.321a9.307,9.307,0,0,0,1.636,5.844A5.5,5.5,0,0,0,1212.69.861a20.137,20.137,0,0,0,3.273.234h.935l-27.117,17.533Zm113.613-91.872h37.17a28.4,28.4,0,0,0-14.26,8.883q-3.507,3.273-7.247,11.689l-36.468,89.3L1269.263,52.29q-3.273,8.182-7.364,10.87t-10.637,1.987a9.35,9.35,0,0,1-6.779-4.442,9.565,9.565,0,0,1-1.169-7.948q2.571-7.013,9.818-6.779,2.1.234,5.377,2.922a27.164,27.164,0,0,0,3.507,2.688q5.143.935,9.117-7.714l10.286-25.014L1239.34-76.284a27.713,27.713,0,0,0-7.364-9q-4.559-3.623-7.831-3.857l-3.039-.468h46.521q-.935.234-2.1.584a19.5,19.5,0,0,0-2.455.935,9.638,9.638,0,0,0-2.455,1.636,8.827,8.827,0,0,0-1.87,2.338,6.319,6.319,0,0,0-.584,3.39,16.525,16.525,0,0,0,1.052,4.675l24.312,56.573q3.506,7.247,7.013,7.247a4.15,4.15,0,0,0,1.87-.468,4.111,4.111,0,0,0,1.636-1.636q.7-1.169,1.286-2.1a26.346,26.346,0,0,0,1.4-2.688q.818-1.753,1.286-2.688l18.7-45.819.935-2.571q2.805-7.948-1.052-13.091T1303.393-89.609ZM1418.876-84v23.143a59.527,59.527,0,0,0-18.117-21.858q-11.338-8.3-23.26-8.065-16.6.468-18.468,14.26a8.8,8.8,0,0,0-.117,6.195,32.488,32.488,0,0,0,3.156,7.247q2.1,3.623,8.65,7.481a64.165,64.165,0,0,0,16.6,6.429q21.04,5.611,29.806,13.442a25.353,25.353,0,0,1,8.766,19.754q.234,14.728-9.935,24.429t-28.871,9.7q-9.117,0-24.312-3.507-2.805-.935-6.078-2.1l-8.883-4.442-3.273-1.87-.468-31.325q9.585,21.273,23.611,30.156a54.432,54.432,0,0,0,19.169,7.948q10.286,2.1,18.234-.935A13.467,13.467,0,0,0,1414.2.627q2.1-10.052-5.727-17.767t-27-13.091q-18.7-5.377-26.65-12.974a25.257,25.257,0,0,1-7.948-19.052,29.271,29.271,0,0,1,10.87-22.793q10.637-9,28.871-9Q1406.72-94.051,1418.876-84Z" transform="translate(-200.392 250.792)" fill="#fff"/>
        </g>
    </g>
</svg>